<svg width="28" height="28" viewBox="0 0 28 28" fill="none" xmlns="http://www.w3.org/2000/svg">
<path fill-rule="evenodd" clip-rule="evenodd" d="M11.1516 25.0323C6.8676 25.0323 3.20776 24.3848 3.20776 21.7901C3.20776 19.1954 6.84426 16.8574 11.1516 16.8574C15.4356 16.8574 19.0943 19.1733 19.0943 21.7668C19.0943 24.3603 15.4589 25.0323 11.1516 25.0323Z" stroke="#212121" stroke-width="1.5" stroke-linecap="round" stroke-linejoin="round"/>
<path fill-rule="evenodd" clip-rule="evenodd" d="M11.1516 13.1573C13.9633 13.1573 16.2429 10.8776 16.2429 8.06594C16.2429 5.25428 13.9633 2.97461 11.1516 2.97461C8.33994 2.97461 6.06028 5.25428 6.06028 8.06594C6.04978 10.8683 8.31428 13.1479 11.1154 13.1573H11.1516Z" stroke="#212121" stroke-width="1.5" stroke-linecap="round" stroke-linejoin="round"/>
<path d="M19.6014 11.7591C21.2382 11.3216 22.4446 9.8294 22.4446 8.05373C22.4457 6.20107 21.1309 4.65407 19.3832 4.2959" stroke="#212121" stroke-width="1.5" stroke-linecap="round" stroke-linejoin="round"/>
<path d="M20.3709 15.9297C22.6903 15.9297 24.6713 17.5024 24.6713 18.9059C24.6713 19.733 23.9888 20.5824 22.9504 20.8262" stroke="#212121" stroke-width="1.5" stroke-linecap="round" stroke-linejoin="round"/>
</svg>
