<svg width="19" height="22" viewBox="0 0 19 22" fill="none" xmlns="http://www.w3.org/2000/svg">
<path d="M15.7132 11.6258C15.7034 9.82322 16.5187 8.4627 18.169 7.46073C17.2456 6.13951 15.8507 5.41259 14.0088 5.27015C12.2652 5.13263 10.3595 6.28686 9.66208 6.28686C8.92533 6.28686 7.23574 5.31927 5.90961 5.31927C3.16893 5.36348 0.256348 7.50494 0.256348 11.8615C0.256348 13.1484 0.492105 14.4778 0.963619 15.8498C1.5923 17.6523 3.86147 22.0728 6.22886 21.9991C7.46659 21.9696 8.34085 21.1199 9.95186 21.1199C11.5138 21.1199 12.3242 21.9991 13.7043 21.9991C16.0914 21.9647 18.1444 17.947 18.7436 16.1395C15.5413 14.6317 15.7132 11.7191 15.7132 11.6258ZM12.9332 3.56092C14.2741 1.96955 14.1513 0.52063 14.112 0C12.9283 0.0687625 11.558 0.805504 10.777 1.71415C9.91748 2.68665 9.41158 3.88999 9.51964 5.2456C10.8016 5.34383 11.9705 4.68567 12.9332 3.56092Z" fill="black"/>
</svg>
