<svg width="35" height="35" viewBox="0 0 35 35" fill="none" xmlns="http://www.w3.org/2000/svg">
<path opacity="0.4" d="M17.5 32.0837C25.5541 32.0837 32.0833 25.5545 32.0833 17.5003C32.0833 9.44617 25.5541 2.91699 17.5 2.91699C9.44581 2.91699 2.91663 9.44617 2.91663 17.5003C2.91663 25.5545 9.44581 32.0837 17.5 32.0837Z" fill="white"/>
<path d="M15.6625 23.7414C15.3854 23.7414 15.1083 23.6393 14.8896 23.4206C14.4667 22.9977 14.4667 22.2977 14.8896 21.8747L19.2646 17.4997L14.8896 13.1247C14.4667 12.7018 14.4667 12.0018 14.8896 11.5789C15.3125 11.156 16.0125 11.156 16.4354 11.5789L21.5833 16.7268C22.0062 17.1497 22.0062 17.8497 21.5833 18.2727L16.4354 23.4206C16.2167 23.6393 15.9396 23.7414 15.6625 23.7414Z" fill="white"/>
</svg>
