<svg width="35" height="35" viewBox="0 0 35 35" fill="none" xmlns="http://www.w3.org/2000/svg">
<path opacity="0.4" d="M17.5 32.0837C25.5541 32.0837 32.0833 25.5545 32.0833 17.5003C32.0833 9.44617 25.5541 2.91699 17.5 2.91699C9.44581 2.91699 2.91663 9.44617 2.91663 17.5003C2.91663 25.5545 9.44581 32.0837 17.5 32.0837Z" fill="white"/>
<path d="M19.3375 23.7414C19.0604 23.7414 18.7833 23.6393 18.5646 23.4206L13.4167 18.2727C12.9938 17.8497 12.9938 17.1497 13.4167 16.7268L18.5646 11.5789C18.9875 11.156 19.6875 11.156 20.1104 11.5789C20.5333 12.0018 20.5333 12.7018 20.1104 13.1247L15.7354 17.4997L20.1104 21.8747C20.5333 22.2977 20.5333 22.9977 20.1104 23.4206C19.9063 23.6393 19.6292 23.7414 19.3375 23.7414Z" fill="white"/>
</svg>
