<svg width="20" height="20" viewBox="0 0 20 20" fill="none" xmlns="http://www.w3.org/2000/svg">
<path fill-rule="evenodd" clip-rule="evenodd" d="M8.14811 17.5H11.8518C14.4527 17.5 15.7531 17.5 16.6873 16.8872C17.0917 16.6219 17.4389 16.2809 17.7091 15.8839C18.3333 14.9667 18.3333 13.6899 18.3333 11.1364C18.3333 8.5828 18.3333 7.30601 17.7091 6.38884C17.4389 5.99178 17.0917 5.65087 16.6873 5.38557C16.087 4.99178 15.3355 4.85102 14.185 4.80071C13.6359 4.80071 13.1632 4.39223 13.0555 3.86364C12.894 3.07074 12.1849 2.5 11.3613 2.5H8.63858C7.815 2.5 7.10592 3.07074 6.9444 3.86364C6.83673 4.39223 6.364 4.80071 5.81496 4.80071C4.66441 4.85102 3.91292 4.99178 3.31266 5.38557C2.90825 5.65087 2.56103 5.99178 2.29081 6.38884C1.66663 7.30601 1.66663 8.5828 1.66663 11.1364C1.66663 13.6899 1.66663 14.9667 2.29081 15.8839C2.56103 16.2809 2.90825 16.6219 3.31266 16.8872C4.24682 17.5 5.54725 17.5 8.14811 17.5ZM9.99996 7.72727C8.0823 7.72727 6.52774 9.25357 6.52774 11.1364C6.52774 13.0192 8.0823 14.5455 9.99996 14.5455C11.9176 14.5455 13.4722 13.0192 13.4722 11.1364C13.4722 9.25357 11.9176 7.72727 9.99996 7.72727ZM9.99996 9.09091C8.84937 9.09091 7.91663 10.0067 7.91663 11.1364C7.91663 12.266 8.84937 13.1818 9.99996 13.1818C11.1506 13.1818 12.0833 12.266 12.0833 11.1364C12.0833 10.0067 11.1506 9.09091 9.99996 9.09091ZM13.9351 8.40909C13.9351 8.03253 14.2461 7.72727 14.6296 7.72727H15.5555C15.939 7.72727 16.25 8.03253 16.25 8.40909C16.25 8.78565 15.939 9.09091 15.5555 9.09091H14.6296C14.2461 9.09091 13.9351 8.78565 13.9351 8.40909Z" fill="black"/>
</svg>
