<svg width="18" height="19" viewBox="0 0 18 19" fill="none" xmlns="http://www.w3.org/2000/svg">
<path fill-rule="evenodd" clip-rule="evenodd" d="M1.5 9.51127C1.5 5.56034 4.6575 2 9.015 2C13.275 2 16.5 5.49274 16.5 9.48873C16.5 14.1232 12.72 17 9 17C7.77 17 6.405 16.6695 5.31 16.0235C4.9275 15.7907 4.605 15.6179 4.1925 15.7531L2.6775 16.2038C2.295 16.324 1.95 16.0235 2.0625 15.6179L2.565 13.9354C2.6475 13.7026 2.6325 13.4547 2.5125 13.2594C1.8675 12.0726 1.5 10.7732 1.5 9.51127ZM8.025 9.51127C8.025 10.0446 8.4525 10.4727 8.985 10.4802C9.5175 10.4802 9.945 10.0446 9.945 9.51878C9.945 8.98548 9.5175 8.55734 8.985 8.55734C8.46 8.54982 8.025 8.98548 8.025 9.51127ZM11.4825 9.51878C11.4825 10.0446 11.91 10.4802 12.4425 10.4802C12.975 10.4802 13.4025 10.0446 13.4025 9.51878C13.4025 8.98548 12.975 8.55734 12.4425 8.55734C11.91 8.55734 11.4825 8.98548 11.4825 9.51878ZM5.5275 10.4802C5.0025 10.4802 4.5675 10.0446 4.5675 9.51878C4.5675 8.98548 4.995 8.55734 5.5275 8.55734C6.06 8.55734 6.4875 8.98548 6.4875 9.51878C6.4875 10.0446 6.06 10.4727 5.5275 10.4802Z" fill="#9E9E9E"/>
</svg>
