<svg width="28" height="28" viewBox="0 0 28 28" fill="none" xmlns="http://www.w3.org/2000/svg">
<path d="M10.5 14.0007L12.8333 16.334L18.0833 11.084M20.8847 5.83224C21.1249 6.41327 21.5861 6.87512 22.1667 7.11624L24.2028 7.95962C24.7838 8.20031 25.2455 8.66198 25.4861 9.24305C25.7268 9.82413 25.7268 10.477 25.4861 11.0581L24.6434 13.0928C24.4026 13.6741 24.4023 14.3276 24.6441 14.9087L25.4854 16.9427C25.6047 17.2305 25.6662 17.539 25.6662 17.8506C25.6663 18.1621 25.6049 18.4707 25.4857 18.7585C25.3665 19.0463 25.1917 19.3079 24.9714 19.5281C24.7511 19.7484 24.4895 19.9231 24.2016 20.0422L22.1671 20.885C21.586 21.1252 21.1242 21.5864 20.8831 22.1671L20.0398 24.2032C19.7991 24.7843 19.3374 25.2459 18.7564 25.4866C18.1753 25.7273 17.5224 25.7273 16.9414 25.4866L14.9068 24.6438C14.3257 24.4037 13.6731 24.4042 13.0924 24.6452L11.0564 25.4874C10.4756 25.7275 9.82332 25.7273 9.24274 25.4868C8.66216 25.2463 8.20077 24.7852 7.95993 24.2047L7.11632 22.168C6.87608 21.587 6.41495 21.1251 5.8343 20.884L3.79825 20.0406C3.21745 19.8 2.75595 19.3387 2.51518 18.7579C2.27441 18.1772 2.27408 17.5246 2.51427 16.9436L3.35702 14.909C3.59711 14.3279 3.59662 13.6752 3.35566 13.0945L2.51411 11.0569C2.3948 10.7691 2.33336 10.4606 2.33331 10.1491C2.33326 9.8375 2.3946 9.52899 2.51382 9.24116C2.63304 8.95332 2.80781 8.6918 3.02814 8.47153C3.24847 8.25126 3.51004 8.07657 3.79791 7.95744L5.83249 7.11465C6.413 6.87462 6.87455 6.41405 7.11583 5.83405L7.95919 3.79793C8.19987 3.21685 8.66152 2.75519 9.24257 2.5145C9.82363 2.27381 10.4765 2.27381 11.0575 2.5145L13.0921 3.35729C13.6732 3.59738 14.3258 3.59689 14.9065 3.35592L16.9434 2.51581C17.5244 2.27525 18.1771 2.2753 18.7581 2.51595C19.339 2.75659 19.8006 3.21812 20.0413 3.79904L20.8849 5.83577L20.8847 5.83224Z" stroke="black" stroke-width="2" stroke-linecap="round" stroke-linejoin="round"/>
</svg>
