<svg width="24" height="24" viewBox="0 0 24 24" fill="none" xmlns="http://www.w3.org/2000/svg">
<path fill-rule="evenodd" clip-rule="evenodd" d="M16.6379 23.0709C15.2111 23.6693 13.6442 24 12 24C10.0804 24 8.26604 23.5493 6.65703 22.7478C6.22945 22.5349 5.74072 22.464 5.27926 22.5875L2.60802 23.3022C1.44842 23.6125 0.387544 22.5516 0.697812 21.392L1.41254 18.7207C1.53601 18.2593 1.46512 17.7706 1.25215 17.343C1.09727 17.032 0.955485 16.7134 0.82752 16.3878C4.73193 17.0397 8.78319 16.7041 11.883 14.9977C12.7037 14.5443 13.4907 14.0221 14.2509 13.445C14.641 14.2214 15.0245 15.0802 15.4012 16.0351C16.269 18.2473 16.5852 19.9031 16.6524 20.6038C16.7342 21.5003 16.7128 22.3295 16.6379 23.0709ZM17.4218 22.7082C21.325 20.728 24 16.6764 24 12C24 9.54001 23.2598 7.25291 21.9899 5.34928C19.9039 7.92971 17.7177 10.5657 15.2465 12.655C15.5223 13.2939 15.7914 13.974 16.0537 14.7092C16.8248 16.8682 17.4119 19.7568 17.4218 22.7082ZM20.988 4.049C19.0397 6.39032 16.8115 8.74352 14.298 10.6763C13.928 10.958 13.558 11.2328 13.1745 11.5008C11.0757 12.9573 8.79524 14.1046 6.32642 14.7092C4.2988 15.2089 2.37943 15.2038 0.385981 15.0306C0.134072 14.0626 0 13.0469 0 12C0 5.37258 5.37258 0 12 0C15.5776 0 18.7895 1.56558 20.988 4.049Z" fill="white"/>
</svg>
