<svg width="20" height="20" viewBox="0 0 20 20" fill="none" xmlns="http://www.w3.org/2000/svg">
<path d="M18.3333 5.20866V9.45864C18.3333 10.517 17.9833 11.4087 17.3583 12.0253C16.7416 12.6503 15.85 13.0003 14.7916 13.0003V14.5086C14.7916 15.0753 14.1583 15.417 13.6916 15.1003L12.8833 14.567C12.9583 14.3086 12.9916 14.0253 12.9916 13.7253V10.3337C12.9916 8.63368 11.8583 7.50033 10.1583 7.50033H4.49995C4.38329 7.50033 4.27496 7.50867 4.16663 7.51701V5.20866C4.16663 3.08366 5.58329 1.66699 7.70829 1.66699H14.7916C16.9166 1.66699 18.3333 3.08366 18.3333 5.20866Z" stroke="#1F2232" stroke-width="1.5" stroke-miterlimit="10" stroke-linecap="round" stroke-linejoin="round"/>
<path d="M12.9916 10.3334V13.725C12.9916 14.025 12.9583 14.3083 12.8833 14.5667C12.575 15.7917 11.5583 16.5583 10.1583 16.5583H7.89163L5.37496 18.2333C4.99996 18.4917 4.49995 18.2167 4.49995 17.7667V16.5583C3.64995 16.5583 2.94163 16.275 2.44996 15.7833C1.94996 15.2833 1.66663 14.575 1.66663 13.725V10.3334C1.66663 8.75002 2.64996 7.65835 4.16663 7.51668C4.27496 7.50835 4.38329 7.5 4.49995 7.5H10.1583C11.8583 7.5 12.9916 8.63335 12.9916 10.3334Z" stroke="#1F2232" stroke-width="1.5" stroke-miterlimit="10" stroke-linecap="round" stroke-linejoin="round"/>
</svg>
