<svg width="20" height="20" viewBox="0 0 20 20" fill="none" xmlns="http://www.w3.org/2000/svg">
<path d="M9.99995 2.29199C9.18454 2.29199 8.48917 2.81285 8.23148 3.54194C8.11645 3.86739 7.75937 4.03796 7.43392 3.92293C7.10847 3.8079 6.9379 3.45083 7.05293 3.12538C7.48162 1.91248 8.63833 1.04199 9.99995 1.04199C11.3616 1.04199 12.5183 1.91248 12.947 3.12538C13.062 3.45083 12.8914 3.8079 12.566 3.92293C12.2405 4.03796 11.8834 3.86739 11.7684 3.54194C11.5107 2.81285 10.8154 2.29199 9.99995 2.29199Z" fill="black"/>
<path d="M2.29159 5.00033C2.29159 4.65515 2.57141 4.37533 2.91659 4.37533H17.0833C17.4285 4.37533 17.7083 4.65515 17.7083 5.00033C17.7083 5.3455 17.4285 5.62533 17.0833 5.62533H2.91659C2.57141 5.62533 2.29159 5.3455 2.29159 5.00033Z" fill="black"/>
<path d="M4.92916 7.04208C4.9062 6.69767 4.60838 6.43708 4.26397 6.46004C3.91955 6.483 3.65897 6.78082 3.68193 7.12523L4.06813 12.9183C4.13938 13.9873 4.19693 14.8507 4.33191 15.5283C4.47224 16.2327 4.71092 16.8211 5.20392 17.2823C5.69692 17.7436 6.29987 17.9426 7.01208 18.0357C7.69711 18.1254 8.56248 18.1253 9.6338 18.1253H10.3662C11.4375 18.1253 12.3029 18.1254 12.9879 18.0357C13.7001 17.9426 14.3031 17.7436 14.7961 17.2823C15.289 16.8211 15.5277 16.2327 15.6681 15.5283C15.803 14.8508 15.8606 13.9873 15.9318 12.9184L16.318 7.12523C16.341 6.78082 16.0804 6.483 15.736 6.46004C15.3916 6.43708 15.0938 6.69767 15.0708 7.04208L14.6875 12.7913C14.6126 13.9146 14.5593 14.6961 14.4422 15.2841C14.3285 15.8545 14.1699 16.1564 13.9421 16.3695C13.7142 16.5827 13.4024 16.7209 12.8258 16.7963C12.2313 16.8741 11.4479 16.8753 10.3222 16.8753H9.67775C8.55205 16.8753 7.76871 16.8741 7.17421 16.7963C6.59754 16.7209 6.28574 16.5827 6.0579 16.3695C5.83006 16.1564 5.67144 15.8545 5.55782 15.2841C5.44068 14.6961 5.38732 13.9146 5.31244 12.7913L4.92916 7.04208Z" fill="black"/>
<path d="M7.85447 8.54509C8.19793 8.51075 8.50421 8.76134 8.53856 9.1048L8.95522 13.2715C8.98957 13.6149 8.73898 13.9212 8.39552 13.9556C8.05205 13.9899 7.74577 13.7393 7.71143 13.3958L7.29476 9.22918C7.26042 8.88572 7.511 8.57944 7.85447 8.54509Z" fill="black"/>
<path d="M12.7052 9.22918C12.7396 8.88572 12.489 8.57944 12.1455 8.54509C11.8021 8.51075 11.4958 8.76134 11.4614 9.1048L11.0448 13.2715C11.0104 13.6149 11.261 13.9212 11.6045 13.9556C11.9479 13.9899 12.2542 13.7393 12.2886 13.3958L12.7052 9.22918Z" fill="black"/>
</svg>
