<svg width="21" height="21" viewBox="0 0 21 21" fill="none" xmlns="http://www.w3.org/2000/svg">
<path d="M10.5 11.3327C10.9602 11.3327 11.3333 10.9596 11.3333 10.4993C11.3333 10.0391 10.9602 9.66602 10.5 9.66602C10.0398 9.66602 9.66667 10.0391 9.66667 10.4993C9.66667 10.9596 10.0398 11.3327 10.5 11.3327Z" stroke="white" stroke-width="2" stroke-linecap="round" stroke-linejoin="round"/>
<path d="M16.3333 11.3327C16.7936 11.3327 17.1667 10.9596 17.1667 10.4993C17.1667 10.0391 16.7936 9.66602 16.3333 9.66602C15.8731 9.66602 15.5 10.0391 15.5 10.4993C15.5 10.9596 15.8731 11.3327 16.3333 11.3327Z" stroke="white" stroke-width="2" stroke-linecap="round" stroke-linejoin="round"/>
<path d="M4.66667 11.3327C5.12691 11.3327 5.5 10.9596 5.5 10.4993C5.5 10.0391 5.12691 9.66602 4.66667 9.66602C4.20643 9.66602 3.83334 10.0391 3.83334 10.4993C3.83334 10.9596 4.20643 11.3327 4.66667 11.3327Z" stroke="white" stroke-width="2" stroke-linecap="round" stroke-linejoin="round"/>
</svg>
