<svg width="20" height="20" viewBox="0 0 20 20" fill="none" xmlns="http://www.w3.org/2000/svg">
<path d="M9.50001 15.1347L9.50004 15.1346L15.6633 8.97142C14.8244 8.6223 13.8309 8.04883 12.8913 7.10923C11.9516 6.16948 11.3781 5.17581 11.029 4.33691L4.86565 10.5002L4.86563 10.5003C4.38468 10.9812 4.14419 11.2217 3.93737 11.4869C3.69341 11.7996 3.48424 12.1381 3.31358 12.4962C3.1689 12.7997 3.06136 13.1224 2.84626 13.7677L1.712 17.1705C1.60615 17.488 1.6888 17.8381 1.92549 18.0748C2.16217 18.3115 2.51228 18.3941 2.82983 18.2883L6.23261 17.154C6.87789 16.9389 7.20054 16.8314 7.50411 16.6867C7.8622 16.516 8.20064 16.3069 8.51343 16.0629C8.77858 15.8561 9.01908 15.6156 9.50001 15.1347Z" fill="black"/>
<path d="M17.3735 7.26121C18.6532 5.98145 18.6532 3.90656 17.3735 2.62681C16.0937 1.34705 14.0188 1.34705 12.7391 2.62681L11.9999 3.36601C12.01 3.39657 12.0205 3.42756 12.0314 3.45895C12.3023 4.23991 12.8135 5.26366 13.7752 6.22534C14.7369 7.18702 15.7607 7.69823 16.5416 7.96917C16.5729 7.98001 16.6037 7.99047 16.6341 8.00054L17.3735 7.26121Z" fill="black"/>
</svg>
