<svg width="20" height="20" viewBox="0 0 20 20" fill="none" xmlns="http://www.w3.org/2000/svg">
<path d="M8.13666 4.41265C8.72197 4.25604 9.34355 4.16667 9.99994 4.16667C13.1311 4.16667 15.4699 6.20033 16.8605 7.86612C17.9039 9.11613 17.9038 10.8841 16.8603 12.1341C16.7004 12.3256 16.528 12.522 16.3433 12.7196M10.4166 7.53457C11.4635 7.7102 12.2898 8.53646 12.4654 9.58333M2.49996 2.5L17.5 17.5M9.5833 12.4654C8.67982 12.3139 7.94066 11.6777 7.64222 10.8333M3.62425 7.31518C3.45174 7.50103 3.29014 7.68562 3.13964 7.86589C2.09614 9.11588 2.09598 10.8839 3.13945 12.1339C4.52999 13.7997 6.86882 15.8333 9.99998 15.8333C10.6684 15.8333 11.3007 15.7407 11.8953 15.5787" stroke="#9E9E9E" stroke-width="1.5" stroke-linecap="round" stroke-linejoin="round"/>
</svg>
