<svg width="20" height="20" viewBox="0 0 20 20" fill="none" xmlns="http://www.w3.org/2000/svg">
<path d="M8.12496 9.99967C8.12496 8.96414 8.96443 8.12467 9.99996 8.12467C11.0355 8.12467 11.875 8.96414 11.875 9.99967C11.875 11.0352 11.0355 11.8747 9.99996 11.8747C8.96443 11.8747 8.12496 11.0352 8.12496 9.99967Z" fill="black"/>
<path fill-rule="evenodd" clip-rule="evenodd" d="M1.66663 9.99967C1.66663 11.3658 2.02076 11.8259 2.72904 12.7461C4.14326 14.5834 6.51505 16.6663 9.99996 16.6663C13.4849 16.6663 15.8567 14.5834 17.2709 12.7461C17.9792 11.8259 18.3333 11.3658 18.3333 9.99967C18.3333 8.63353 17.9792 8.17345 17.2709 7.25328C15.8567 5.41597 13.4849 3.33301 9.99996 3.33301C6.51505 3.33301 4.14326 5.41597 2.72904 7.25328C2.02076 8.17345 1.66663 8.63353 1.66663 9.99967ZM9.99996 6.87467C8.27407 6.87467 6.87496 8.27378 6.87496 9.99967C6.87496 11.7256 8.27407 13.1247 9.99996 13.1247C11.7259 13.1247 13.125 11.7256 13.125 9.99967C13.125 8.27378 11.7259 6.87467 9.99996 6.87467Z" fill="black"/>
</svg>
