<svg width="23" height="22" viewBox="0 0 23 22" fill="none" xmlns="http://www.w3.org/2000/svg">
<path d="M5.37566 13.2946L4.60987 16.1534L1.81093 16.2126C0.974461 14.6611 0.5 12.886 0.5 10.9997C0.5 9.17565 0.943609 7.45552 1.72994 5.94092H1.73054L4.22238 6.39776L5.31396 8.87465C5.0855 9.54071 4.96097 10.2557 4.96097 10.9997C4.96106 11.8072 5.10732 12.5808 5.37566 13.2946Z" fill="#FBBB00"/>
<path d="M22.3077 8.94482C22.434 9.61024 22.4999 10.2974 22.4999 10.9998C22.4999 11.7873 22.4171 12.5555 22.2593 13.2965C21.7239 15.818 20.3247 18.0198 18.3864 19.578L18.3858 19.5774L15.2472 19.4172L14.803 16.6442C16.0891 15.89 17.0942 14.7096 17.6237 13.2965H11.7417V8.94482H17.7095H22.3077Z" fill="#518EF8"/>
<path d="M18.3855 19.5776L18.3861 19.5782C16.501 21.0934 14.1064 22 11.4996 22C7.31055 22 3.66847 19.6586 1.81055 16.2129L5.37528 13.2949C6.30422 15.7741 8.69582 17.539 11.4996 17.539C12.7048 17.539 13.8338 17.2132 14.8026 16.6445L18.3855 19.5776Z" fill="#28B446"/>
<path d="M18.5213 2.53241L14.9578 5.44981C13.9551 4.82307 12.7699 4.46102 11.5 4.46102C8.63278 4.46102 6.19645 6.30683 5.31405 8.87494L1.73058 5.9412H1.72998C3.56071 2.41154 7.24871 0 11.5 0C14.169 0 16.6162 0.950727 18.5213 2.53241Z" fill="#F14336"/>
</svg>
