<svg width="28" height="25" viewBox="0 0 28 25" fill="none" xmlns="http://www.w3.org/2000/svg">
<path fill-rule="evenodd" clip-rule="evenodd" d="M0.76974 12.7887C0.283322 11.503 -0.000244141 10.0839 -0.000244141 8.49863C-0.000244141 1.4366 7.69998 -3.57165 13.9998 3.2177C17.3656 -0.409701 21.1312 -0.669438 23.9086 0.952445L23.7529 1.1583L23.7527 1.15854L23.7527 1.15857C23.5511 1.42517 23.3561 1.68313 23.1676 1.92556C21.1831 4.51334 18.767 7.36449 15.908 9.56296C15.5997 9.7977 15.2914 10.0267 14.9718 10.25C13.2228 11.4637 11.3224 12.4198 9.26506 12.9236C6.82727 13.5245 4.57726 13.2496 2.05872 12.9419C1.63729 12.8904 1.20834 12.838 0.76974 12.7887ZM0.99064 13.3322C2.56053 16.9423 5.73078 19.476 8.54853 21.7279C8.95715 22.0545 9.35835 22.3751 9.74618 22.6923C11.1998 23.8809 12.5998 25 13.9998 25C14.9236 25 15.8474 24.5127 16.7866 23.8397C17.058 23.2716 17.2355 22.7455 17.3543 22.3359C17.6066 21.4771 18.0551 19.8626 17.8701 17.8359C17.814 17.2519 17.5505 15.8721 16.8274 14.0286C16.5134 13.2328 16.1939 12.5172 15.8688 11.8702C15.2353 12.3511 14.5794 12.7862 13.8955 13.1641C10.3063 15.1399 5.18619 14.9103 0.99064 13.3322ZM18.2368 22.7057L18.2533 22.6923C18.6412 22.3751 19.0424 22.0545 19.451 21.7279C23.3823 18.586 27.9998 14.8957 27.9998 8.49863C27.9998 5.75495 26.8375 3.32127 25.0466 1.76899C24.9612 1.87412 24.8775 1.97801 24.7958 2.07947L24.7952 2.08016L24.7952 2.08021C24.631 2.2841 24.4747 2.47815 24.328 2.65266C23.8044 3.28141 23.2786 3.93328 22.746 4.5935C20.8782 6.90906 18.9275 9.32736 16.6984 11.2118C16.9283 11.7443 17.1525 12.3111 17.3711 12.9236C18.2864 15.4861 18.8905 19.2819 18.2368 22.7057Z" fill="white"/>
</svg>
