<svg width="25" height="25" viewBox="0 0 25 25" fill="none" xmlns="http://www.w3.org/2000/svg">
<path d="M2.09998 12.7039C2.09998 10.4155 2.09998 9.27128 2.61918 8.32274C3.13838 7.37421 4.08692 6.78551 5.98401 5.60813L7.98401 4.36687C9.98936 3.12229 10.992 2.5 12.1 2.5C13.2079 2.5 14.2106 3.12229 16.2159 4.36687L18.2159 5.60812C20.113 6.78551 21.0616 7.37421 21.5808 8.32274C22.1 9.27128 22.1 10.4155 22.1 12.7039V14.225C22.1 18.1258 22.1 20.0763 20.9284 21.2881C19.7568 22.5 17.8712 22.5 14.1 22.5H10.1C6.32874 22.5 4.44312 22.5 3.27155 21.2881C2.09998 20.0763 2.09998 18.1258 2.09998 14.225V12.7039Z" stroke="white" stroke-width="1.5"/>
<path d="M9.09998 16.5C9.95035 17.1303 10.9845 17.5 12.1 17.5C13.2154 17.5 14.2496 17.1303 15.1 16.5" stroke="white" stroke-width="1.5" stroke-linecap="round"/>
</svg>
