<svg width="20" height="20" viewBox="0 0 20 20" fill="none" xmlns="http://www.w3.org/2000/svg">
<path fill-rule="evenodd" clip-rule="evenodd" d="M5.28648 0.373728C6.42861 0.249986 7.86821 0.249992 9.70475 0.25H9.79525C11.6318 0.249992 13.0714 0.249986 14.2135 0.373728C15.3791 0.500006 16.3234 0.762324 17.1298 1.34815C17.6179 1.70281 18.0472 2.13209 18.4018 2.62024C18.9877 3.42656 19.25 4.37094 19.3763 5.53648C19.5 6.67859 19.5 8.11824 19.5 9.95473V10.006C19.5 10.9403 19.5 11.7682 19.4848 12.5005C19.4403 14.6546 19.2717 16.1825 18.4018 17.3798C18.0472 17.8679 17.6179 18.2972 17.1298 18.6518C16.3234 19.2377 15.3791 19.5 14.2135 19.6263C13.0714 19.75 11.6318 19.75 9.79535 19.75H9.70473C7.86824 19.75 6.42859 19.75 5.28648 19.6263C4.12094 19.5 3.17656 19.2377 2.37024 18.6518C1.89981 18.3101 1.48405 17.899 1.13706 17.4327C1.12399 17.4151 1.11102 17.3975 1.09815 17.3798C0.512324 16.5734 0.250006 15.6291 0.123728 14.4635C-1.45137e-05 13.3214 -8.0193e-06 11.8818 1.31987e-07 10.0453V9.95475C-7.76488e-06 8.11822 -1.39475e-05 6.67861 0.123729 5.53648C0.250007 4.37094 0.512324 3.42656 1.09815 2.62024C1.45281 2.13209 1.88209 1.70281 2.37024 1.34815C3.17656 0.762324 4.12094 0.500006 5.28648 0.373728ZM17.9953 11.7517L17.9323 11.6908C17.6563 11.4257 17.4524 11.2463 17.2606 11.1101C15.1118 9.58448 12.1478 9.98851 10.4858 12.0336C10.285 12.2806 10.0841 12.6097 9.7682 13.1622L9.25 13C8.05448 12.7609 7.45672 12.6413 6.90808 12.653C5.43985 12.6842 4.05956 13.3593 3.13354 14.4991C2.82484 14.879 2.57456 15.354 2.13701 16.2263C2.19098 16.3218 2.24912 16.412 2.31168 16.4981L2.34044 16.5372C2.5969 16.8818 2.90421 17.1857 3.25191 17.4383C3.75992 17.8074 4.41013 18.0225 5.44804 18.135C6.49999 18.249 7.85843 18.25 9.75 18.25C11.6416 18.25 13 18.249 14.052 18.135C15.0899 18.0225 15.7401 17.8074 16.2481 17.4383C16.6089 17.1762 16.9262 16.8589 17.1883 16.4981C17.75 15.725 17.94 14.6526 17.9852 12.4695C17.9899 12.2406 17.9931 12.0016 17.9953 11.7517ZM8.75 9C7.64543 9 6.75 8.10457 6.75 7C6.75 5.89543 7.64543 5 8.75 5C9.85457 5 10.75 5.89543 10.75 7C10.75 8.10457 9.85457 9 8.75 9Z" fill="white"/>
</svg>
