<svg width="28" height="28" viewBox="0 0 28 28" fill="none" xmlns="http://www.w3.org/2000/svg">
<path d="M19.348 3.5H9.23393C5.70943 3.5 3.5 5.99435 3.5 9.52702V19.0563C3.5 22.5878 5.69893 25.0833 9.23393 25.0833H19.3468C22.883 25.0833 25.0833 22.5878 25.0833 19.0563V9.52702C25.0833 5.99435 22.883 3.5 19.348 3.5Z" stroke="black" stroke-width="1.5" stroke-linecap="round" stroke-linejoin="round"/>
<path d="M8.4079 10.2656H16.7402" stroke="black" stroke-width="1.5" stroke-linecap="round" stroke-linejoin="round"/>
<path d="M12.3585 9.22852V10.2657" stroke="black" stroke-width="1.5" stroke-linecap="round" stroke-linejoin="round"/>
<path d="M16.5244 18.2039C14.3276 18.3533 11.2327 15.6267 10.6808 13.291" stroke="black" stroke-width="1.5" stroke-linecap="round" stroke-linejoin="round"/>
<path d="M14.7887 10.2656C14.6482 11.9267 13.9923 13.5024 12.9128 14.7726C11.8333 16.0429 10.384 16.9442 8.76733 17.3508" stroke="black" stroke-width="1.5" stroke-linecap="round" stroke-linejoin="round"/>
<path d="M14.2997 19.3544L17.2375 13.6016L20.1752 19.3544" stroke="black" stroke-width="1.5" stroke-linecap="round" stroke-linejoin="round"/>
</svg>
