<svg width="16" height="16" viewBox="0 0 16 16" fill="none" xmlns="http://www.w3.org/2000/svg">
<path d="M5.59332 12.3265V5.55315C5.59332 5.28649 5.67332 5.02649 5.81999 4.80649L7.63999 2.09982C7.92666 1.66649 8.63999 1.35982 9.24666 1.58649C9.89999 1.80649 10.3333 2.53982 10.1933 3.19315L9.84666 5.37315C9.81999 5.57315 9.87332 5.75315 9.98666 5.89315C10.1 6.01982 10.2667 6.09982 10.4467 6.09982H13.1867C13.7133 6.09982 14.1667 6.31315 14.4333 6.68649C14.6867 7.04649 14.7333 7.51315 14.5667 7.98649L12.9267 12.9798C12.72 13.8065 11.82 14.4798 10.9267 14.4798H8.32666C7.87999 14.4798 7.25332 14.3265 6.96666 14.0398L6.11332 13.3798C5.78666 13.1332 5.59332 12.7398 5.59332 12.3265Z" fill="#068FFF"/>
<path d="M3.47331 4.25293H2.78665C1.75331 4.25293 1.33331 4.65293 1.33331 5.6396V12.3463C1.33331 13.3329 1.75331 13.7329 2.78665 13.7329H3.47331C4.50665 13.7329 4.92665 13.3329 4.92665 12.3463V5.6396C4.92665 4.65293 4.50665 4.25293 3.47331 4.25293Z" fill="#068FFF"/>
</svg>
