<svg width="18" height="19" viewBox="0 0 18 19" fill="none" xmlns="http://www.w3.org/2000/svg">
<path fill-rule="evenodd" clip-rule="evenodd" d="M12.7045 2.75C13.7102 2.75 14.6777 3.1475 15.3895 3.86075C16.102 4.5725 16.5002 5.5325 16.5002 6.5375V12.4625C16.5002 14.555 14.7977 16.25 12.7045 16.25H5.29524C3.20199 16.25 1.50024 14.555 1.50024 12.4625V6.5375C1.50024 4.445 3.19449 2.75 5.29524 2.75H12.7045ZM13.8977 7.655L13.9577 7.595C14.137 7.3775 14.137 7.0625 13.9495 6.845C13.8452 6.73325 13.702 6.665 13.5527 6.65C13.3952 6.64175 13.2452 6.695 13.132 6.8L9.75024 9.5C9.31524 9.86075 8.69199 9.86075 8.25024 9.5L4.87524 6.8C4.64199 6.6275 4.31949 6.65 4.12524 6.8525C3.92274 7.055 3.90024 7.3775 4.07199 7.6025L4.17024 7.7L7.58274 10.3625C8.00274 10.6925 8.51199 10.8725 9.04524 10.8725C9.57699 10.8725 10.0952 10.6925 10.5145 10.3625L13.8977 7.655Z" fill="#9E9E9E"/>
</svg>
