<svg width="20" height="20" viewBox="0 0 20 20" fill="none" xmlns="http://www.w3.org/2000/svg">
<path d="M4.99999 15.4776C6.83832 15.4776 8.33332 13.9826 8.33332 12.1443V3.6901L15.8333 6.41677V12.6084C15.329 12.308 14.7536 12.1477 14.1667 12.1443C12.3283 12.1443 10.8333 13.6393 10.8333 15.4776C10.8333 17.3159 12.3283 18.8109 14.1667 18.8109C16.005 18.8109 17.5 17.3159 17.5 15.4776V5.83343C17.5001 5.66246 17.4475 5.4956 17.3494 5.35558C17.2513 5.21556 17.1124 5.10918 16.9517 5.05093L7.78499 1.7176C7.65915 1.6716 7.52407 1.65665 7.39121 1.67402C7.25836 1.69139 7.13166 1.74057 7.02188 1.81739C6.91211 1.8942 6.82249 1.99637 6.76064 2.11523C6.6988 2.23409 6.66656 2.36612 6.66666 2.5001V9.2751C6.16238 8.97465 5.58698 8.8144 4.99999 8.81093C3.16166 8.81093 1.66666 10.3059 1.66666 12.1443C1.66666 13.9826 3.16166 15.4776 4.99999 15.4776Z" fill="white"/>
</svg>
