<svg width="157" height="156" viewBox="0 0 157 156" fill="none" xmlns="http://www.w3.org/2000/svg">
<g clip-path="url(#clip0_9_49614)">
<path d="M31.6543 90.5806L21.5898 110.71H30.6935V156H126.306V110.71H135.41L125.346 90.5806H31.6543ZM34.7651 95.6129H74.4285L69.3962 105.677H29.7328L34.7651 95.6129ZM121.274 150.968H81.0161V133.355H75.9839V150.968H35.7258V110.71H72.507L75.9839 103.755V125.806H81.0161V103.755L84.493 110.71H121.274V150.968ZM122.235 95.6129L127.267 105.677H87.6038L82.5715 95.6129H122.235ZM40.7581 130.839H55.8548V135.871H40.7581V130.839ZM40.7581 140.903H55.8548V145.935H40.7581V140.903ZM60.8871 140.903H65.9194V145.935H60.8871V140.903ZM66.8801 40.9227L78.5 37.9606L90.1199 40.9203L91.0303 28.4428L97.2027 17.8992L86.2855 13.174L78.5 3.54814L70.712 13.174L59.7949 17.8992L65.9673 28.4428L66.8801 40.9227ZM73.8474 17.2984L78.5 11.5486L83.1526 17.3008L89.9909 20.2629L86.0988 26.912L85.5398 34.5636L78.5 32.7699L71.4603 34.5611L70.9012 26.9096L67.0091 20.2593L73.8474 17.2984ZM13.131 46.0582L13.6716 53.5034L20.629 51.7318L27.5889 53.5034L28.1295 46.0582L31.7858 39.8158L25.3087 37.0097L20.629 31.2256L15.9518 37.0072L9.47477 39.8133L13.131 46.0582ZM19.0872 41.134L20.629 39.2261L22.1709 41.134L24.5691 42.1734L23.1931 44.5249L23.0014 47.1442L20.629 46.5386L18.2566 47.1418L18.0625 44.5225L16.6865 42.1697L19.0872 41.134ZM129.411 53.5034L136.371 51.7318L143.331 53.5034L143.871 46.0582L147.528 39.8158L141.051 37.0097L136.371 31.2256L131.694 37.0072L125.217 39.8133L128.873 46.0557L129.411 53.5034ZM134.829 41.134L136.371 39.2261L137.913 41.134L140.311 42.1734L138.935 44.5249L138.743 47.1442L136.371 46.5386L133.999 47.1418L133.807 44.5225L132.431 42.1697L134.829 41.134ZM31.8128 59.9645C36.6042 63.16 40.8613 67.0595 44.4573 71.5586L54.4235 84.0114L52.362 67.5251C51.2858 58.9177 46.6884 50.9946 39.7494 45.7916L37.3389 43.9843L29.9638 58.731L31.8128 59.9645ZM39.0651 51.787C43.3196 55.8131 46.2056 61.1722 47.1946 66.9698C44.0163 63.2374 40.4104 59.9116 36.4359 57.0454L39.0651 51.787ZM104.638 67.5251L102.576 84.0114L112.543 71.5561C116.141 67.0571 120.396 63.1575 125.187 59.962L127.034 58.7285L119.659 43.9819L117.248 45.794C110.312 50.9971 105.712 58.9177 104.638 67.5251ZM120.564 57.0454C116.59 59.9116 112.981 63.2349 109.805 66.9698C110.797 61.1722 113.68 55.8131 117.935 51.787L120.564 57.0454ZM88.5645 75.006C88.5645 61.7459 93.2393 48.836 101.726 38.6474L105.594 41.8687C97.8563 51.1556 93.5968 62.9204 93.5968 75.006V85.5484H88.5645V75.006ZM111.21 35.2258H106.177V30.1935H111.21V35.2258ZM118.758 25.1613H113.726V20.129H118.758V25.1613ZM63.4032 75.006C63.4032 62.9204 59.1437 51.1556 51.4037 41.8687L55.2713 38.6474C63.7607 48.836 68.4355 61.7484 68.4355 75.006V85.5484H63.4032V75.006ZM50.8226 35.2258H45.7903V30.1935H50.8226V35.2258ZM43.2742 25.1613H38.2419V20.129H43.2742V25.1613ZM81.0161 47.8065H75.9839V42.7742H81.0161V47.8065ZM75.9839 52.8387H81.0161V85.5484H75.9839V52.8387ZM151.468 72.9677H146.435V67.9355H151.468V72.9677ZM146.435 78H151.468V83.0323H146.435V78ZM151.468 72.9677H156.5V78H151.468V72.9677ZM146.435 72.9677V78H141.403V72.9677H146.435ZM143.919 5.03226H138.887V0H143.919V5.03226ZM138.887 10.0645H143.919V15.0968H138.887V10.0645ZM143.919 10.0645V5.03226H148.952V10.0645H143.919ZM138.887 10.0645H133.855V5.03226H138.887V10.0645ZM10.5645 83.0323H5.53226V78H10.5645V83.0323ZM5.53226 88.0645H10.5645V93.0968H5.53226V88.0645ZM10.5645 88.0645V83.0323H15.5968V88.0645H10.5645ZM5.53226 88.0645H0.5V83.0323H5.53226V88.0645ZM10.5645 5.03226H5.53226V0H10.5645V5.03226ZM5.53226 10.0645H10.5645V15.0968H5.53226V10.0645ZM10.5645 10.0645V5.03226H15.5968V10.0645H10.5645ZM5.53226 10.0645H0.5V5.03226H5.53226V10.0645Z" fill="black"/>
</g>
<defs>
<clipPath id="clip0_9_49614">
<rect width="156" height="156" fill="white" transform="translate(0.5)"/>
</clipPath>
</defs>
</svg>
