<svg width="15" height="15" viewBox="0 0 15 15" fill="none" xmlns="http://www.w3.org/2000/svg">
<path fill-rule="evenodd" clip-rule="evenodd" d="M7.5 15C11.6421 15 15 11.6421 15 7.5C15 3.35786 11.6421 0 7.5 0C3.35786 0 0 3.35786 0 7.5C0 11.6421 3.35786 15 7.5 15ZM8.0625 5.25C8.0625 4.93934 7.81066 4.6875 7.5 4.6875C7.18934 4.6875 6.9375 4.93934 6.9375 5.25L6.9375 6.93752H5.25C4.93934 6.93752 4.6875 7.18936 4.6875 7.50002C4.6875 7.81068 4.93934 8.06252 5.25 8.06252H6.9375V9.75C6.9375 10.0607 7.18934 10.3125 7.5 10.3125C7.81066 10.3125 8.0625 10.0607 8.0625 9.75L8.0625 8.06252H9.75C10.0607 8.06252 10.3125 7.81068 10.3125 7.50002C10.3125 7.18936 10.0607 6.93752 9.75 6.93752H8.0625V5.25Z" fill="black"/>
</svg>
