<svg width="24" height="27" viewBox="0 0 24 27" fill="none" xmlns="http://www.w3.org/2000/svg">
<path fill-rule="evenodd" clip-rule="evenodd" d="M24 19.1209V12.463C24 8.78177 24 6.28547 23.5311 4.50017C23.079 5.05085 22.6247 5.61405 22.166 6.18263C20.018 8.84552 17.7747 11.6266 15.2113 13.7937C15.4756 14.406 15.7335 15.0578 15.9849 15.7623C16.8331 18.1372 17.449 21.4332 17.2627 24.6842C19.1631 26.3137 20.3167 27.1052 21.3374 26.9884C21.9651 26.9166 22.5544 26.6463 23.0212 26.2161C24 25.314 24 23.2496 24 19.1209ZM16.5158 24.0357C16.6099 23.261 16.6468 22.3769 16.5587 21.4113C16.4942 20.7398 16.1912 19.153 15.3596 17.033C14.9986 16.1178 14.6311 15.2948 14.2572 14.5508C13.5287 15.1039 12.7744 15.6043 11.9879 16.0388C8.64636 17.8783 4.15098 18.0555 0 17.0934V19.1209C0 23.2496 0 25.314 0.978808 26.2161C1.44562 26.6463 2.03486 26.9166 2.66255 26.9884C3.97869 27.139 5.51564 25.7796 8.58955 23.0608C9.94829 21.859 10.6277 21.2581 11.4137 21.0998C11.8008 21.0218 12.1992 21.0218 12.5863 21.0998C13.3723 21.2581 14.0517 21.859 15.4105 23.0608L15.4105 23.0608C15.8031 23.4081 16.1706 23.7332 16.5158 24.0357ZM0 15.9746C2.26507 16.221 4.39322 16.3217 6.66292 15.7623C9.02887 15.1829 11.2143 14.0834 13.2257 12.6876C13.5932 12.4308 13.9477 12.1674 14.3023 11.8975C17.5901 9.36926 20.3687 6.09044 22.6508 3.11449C22.7147 3.03234 22.7792 2.94864 22.8444 2.86359C22.6711 2.59116 22.4718 2.34108 22.2426 2.10941C20.4853 0.333008 17.6569 0.333008 12 0.333008C6.34315 0.333008 3.51472 0.333008 1.75736 2.10941C0 3.88581 0 6.74488 0 12.463V15.9746Z" fill="white"/>
</svg>
