<svg width="20" height="20" viewBox="0 0 20 20" fill="none" xmlns="http://www.w3.org/2000/svg">
<path d="M18.3334 5.41602H13.3334" stroke="#1F2232" stroke-width="2" stroke-miterlimit="10" stroke-linecap="round" stroke-linejoin="round"/>
<path d="M5.00002 5.41602H1.66669" stroke="#1F2232" stroke-width="2" stroke-miterlimit="10" stroke-linecap="round" stroke-linejoin="round"/>
<path d="M8.33335 8.33333C9.94418 8.33333 11.25 7.0275 11.25 5.41667C11.25 3.80584 9.94418 2.5 8.33335 2.5C6.72252 2.5 5.41669 3.80584 5.41669 5.41667C5.41669 7.0275 6.72252 8.33333 8.33335 8.33333Z" stroke="#1F2232" stroke-width="2" stroke-miterlimit="10" stroke-linecap="round" stroke-linejoin="round"/>
<path d="M18.3333 14.584H15" stroke="#292D32" stroke-width="2" stroke-miterlimit="10" stroke-linecap="round" stroke-linejoin="round"/>
<path d="M6.66669 14.584H1.66669" stroke="#292D32" stroke-width="2" stroke-miterlimit="10" stroke-linecap="round" stroke-linejoin="round"/>
<path d="M11.6667 17.4993C13.2775 17.4993 14.5833 16.1935 14.5833 14.5827C14.5833 12.9719 13.2775 11.666 11.6667 11.666C10.0558 11.666 8.75 12.9719 8.75 14.5827C8.75 16.1935 10.0558 17.4993 11.6667 17.4993Z" stroke="#292D32" stroke-width="2" stroke-miterlimit="10" stroke-linecap="round" stroke-linejoin="round"/>
</svg>
