<svg width="27" height="20" viewBox="0 0 27 20" fill="none" xmlns="http://www.w3.org/2000/svg">
<path fill-rule="evenodd" clip-rule="evenodd" d="M19.4074 16.5295L15.5534 19.6127C14.855 20.1714 13.8204 19.6741 13.8204 18.7797V15.3991C13.8204 14.81 13.3428 14.3324 12.7537 14.3324H11.1537C8.96653 14.3316 6.8207 14.9286 4.94823 16.0589C3.38513 17.0025 2.06216 18.2878 1.0754 19.8128C0.904996 20.0762 0.4869 19.9794 0.487061 19.6657C0.487061 17.2071 1.15249 14.9039 2.31308 12.9264C6.64565 14.0699 11.4517 13.9784 14.975 12.0388C15.7615 11.6043 16.5158 11.1039 17.2442 10.5508C17.6182 11.2948 17.9856 12.1178 18.3466 13.033C18.9193 14.493 19.2413 15.7 19.4074 16.5295ZM20.0207 16.0388L26.1126 11.1653C26.6463 10.7383 26.6463 9.9265 26.1126 9.49948L21.883 6.11581C20.7176 7.43609 19.4992 8.69394 18.1984 9.79369C18.4627 10.406 18.7205 11.0578 18.972 11.7623C19.4094 12.987 19.785 14.4567 20.0207 16.0388ZM20.532 5.03505C19.5122 6.05034 18.4315 7.01921 17.2894 7.89751C16.9348 8.16745 16.5802 8.43081 16.2128 8.68758C14.2014 10.0834 12.0159 11.1829 9.64998 11.7623C7.36181 12.3262 5.21751 12.2193 2.93174 11.9686C5.15396 8.83061 8.69854 6.69536 12.7539 6.37444C13.3411 6.32796 13.8204 5.85485 13.8204 5.26574V1.88508C13.8204 0.990668 14.855 0.493417 15.5534 1.05215L20.532 5.03505Z" fill="white"/>
</svg>
