<svg width="28" height="28" viewBox="0 0 28 28" fill="none" xmlns="http://www.w3.org/2000/svg">
<path fill-rule="evenodd" clip-rule="evenodd" d="M14 3.20898C13.2326 3.20898 12.4777 3.45589 10.5941 4.10066L9.92577 4.32942C8.16108 4.93348 6.87411 5.37437 5.97052 5.74145C5.5195 5.92468 5.19272 6.07822 4.96333 6.21144C4.85009 6.2772 4.77206 6.33147 4.71995 6.37383C4.67576 6.40975 4.65892 6.43009 4.65651 6.43305C4.65425 6.43672 4.63975 6.46096 4.61933 6.51828C4.59602 6.58374 4.57017 6.67759 4.545 6.80822C4.49405 7.07263 4.45544 7.43583 4.42876 7.92572C4.37532 8.90711 4.375 10.277 4.375 12.1534V13.9906C4.375 20.0282 8.88988 22.9997 11.8986 24.314C12.332 24.5033 12.5823 24.6104 12.8609 24.6818C13.127 24.7499 13.4517 24.7923 14 24.7923C14.5483 24.7923 14.873 24.7499 15.1391 24.6818C15.4177 24.6105 15.668 24.5033 16.1014 24.314C19.1101 22.9997 23.625 20.0282 23.625 13.9906V12.1534C23.625 10.277 23.6247 8.90711 23.5712 7.92572C23.5446 7.43583 23.506 7.07263 23.455 6.80822C23.4298 6.67759 23.404 6.58374 23.3807 6.51828C23.3602 6.46091 23.3457 6.43668 23.3435 6.43305C23.3411 6.43005 23.3242 6.40972 23.28 6.37383C23.2279 6.33147 23.1499 6.2772 23.0367 6.21144C22.8073 6.07822 22.4805 5.92468 22.0295 5.74145C21.1259 5.37437 19.8389 4.93348 18.0742 4.32942L17.406 4.10066C15.5223 3.45589 14.7674 3.20898 14 3.20898ZM10.1773 2.39362C11.8619 1.81666 12.9062 1.45898 14 1.45898C15.0938 1.45898 16.1381 1.81666 17.8227 2.39362C17.8722 2.41055 17.9221 2.42767 17.9727 2.44498L18.6714 2.68414C20.3996 3.27571 21.7334 3.73226 22.6881 4.12013C23.1691 4.31552 23.5826 4.50477 23.9155 4.69813C24.2359 4.8842 24.5574 5.1163 24.7758 5.42745C24.9916 5.73501 25.1032 6.1131 25.1734 6.47707C25.2463 6.85547 25.2903 7.30939 25.3186 7.83057C25.375 8.86545 25.375 10.2832 25.375 12.1221V13.9906C25.375 21.1085 19.999 24.5211 16.8019 25.9176L16.7703 25.9315C16.3739 26.1047 16.0013 26.2675 15.5731 26.3771C15.1211 26.4928 14.6408 26.5423 14 26.5423C13.3592 26.5423 12.8789 26.4928 12.4269 26.3771C11.9987 26.2675 11.6261 26.1047 11.2297 25.9314L11.1981 25.9176C8.00103 24.5211 2.625 21.1085 2.625 13.9906V12.1222C2.625 10.2832 2.625 8.86547 2.68135 7.83057C2.70973 7.30939 2.7537 6.85547 2.82662 6.47707C2.89676 6.1131 3.00837 5.73501 3.22424 5.42745C3.44263 5.1163 3.76407 4.8842 4.08448 4.69813C4.41743 4.50477 4.83092 4.31552 5.31187 4.12013C6.26664 3.73226 7.60039 3.27572 9.32861 2.68414L10.0273 2.44498C10.0779 2.42767 10.1278 2.41055 10.1773 2.39362Z" fill="black"/>
</svg>
