<svg width="26" height="27" viewBox="0 0 26 27" fill="none" xmlns="http://www.w3.org/2000/svg">
<path d="M18.7308 4.9844L18.655 9.09023C18.6441 9.65356 19.0016 10.4011 19.4566 10.7369L22.1433 12.7736C23.8658 14.0736 23.5841 15.6661 21.5258 16.3161L18.0266 17.4102C17.4416 17.5944 16.8241 18.2336 16.6725 18.8294L15.8383 22.0144C15.1775 24.5277 13.5308 24.7769 12.1658 22.5669L10.2591 19.4794C9.91247 18.9161 9.08913 18.4936 8.43913 18.5261L4.8208 18.7102C2.23163 18.8402 1.49497 17.3452 3.18497 15.3736L5.32997 12.8819C5.7308 12.4161 5.91497 11.5494 5.7308 10.9644L4.6258 7.4544C3.98663 5.39606 5.13497 4.25856 7.18247 4.93023L10.3783 5.98106C10.92 6.1544 11.7325 6.03523 12.1875 5.6994L15.5241 3.2944C17.3333 2.00523 18.7741 2.76356 18.7308 4.9844Z" fill="black"/>
<path d="M23.2266 22.6763L19.9441 19.3938C19.63 19.0797 19.11 19.0797 18.7958 19.3938C18.4816 19.708 18.4816 20.228 18.7958 20.5422L22.0783 23.8247C22.2408 23.9872 22.4466 24.063 22.6525 24.063C22.8583 24.063 23.0641 23.9872 23.2266 23.8247C23.5408 23.5105 23.5408 22.9905 23.2266 22.6763Z" fill="black"/>
</svg>
